<svg width="19" height="19" viewBox="0 0 19 19" fill="none" xmlns="http://www.w3.org/2000/svg">
<path fill-rule="evenodd" clip-rule="evenodd" d="M9.5 1.26667C4.95286 1.26667 1.26667 4.95286 1.26667 9.5C1.26667 14.0471 4.95286 17.7333 9.5 17.7333C14.0471 17.7333 17.7333 14.0471 17.7333 9.5C17.7333 4.95286 14.0471 1.26667 9.5 1.26667ZM0 9.5C0 4.25329 4.25329 0 9.5 0C14.7467 0 19 4.25329 19 9.5C19 14.7467 14.7467 19 9.5 19C4.25329 19 0 14.7467 0 9.5Z" fill="#AE61FF"/>
<path d="M13.7865 12.7397C14.0712 13.0277 14.0712 13.4959 13.7865 13.7839C13.6425 13.928 13.4527 14 13.263 14C13.0732 14 12.8867 13.928 12.7394 13.7839L9.5 10.5431L6.26059 13.7839C6.11662 13.928 5.92683 14 5.73705 14C5.54726 14 5.36075 13.928 5.21351 13.7839C4.92883 13.4959 4.92883 13.0277 5.21351 12.7397L8.45292 9.49877L5.21351 6.25789C4.92883 5.96981 4.92883 5.50168 5.21351 5.2136C5.50145 4.9288 5.96937 4.9288 6.25732 5.2136L9.49673 8.45449L12.7361 5.2136C13.0241 4.9288 13.492 4.9288 13.7799 5.2136C14.0646 5.50168 14.0646 5.96981 13.7799 6.25789L10.5405 9.49877L13.7799 12.7397H13.7865Z" fill="#AE61FF"/>
</svg>
