<svg width="17" height="17" viewBox="0 0 17 17" fill="none" xmlns="http://www.w3.org/2000/svg">
<path d="M14.5118 10.9882C13.5882 10.0647 12.4824 9.37647 11.2824 8.96471C12.5706 8.07647 13.4176 6.59412 13.4176 4.91765C13.4118 2.20588 11.2118 0 8.5 0C5.78824 0 3.58824 2.20588 3.58824 4.91177C3.58824 6.58824 4.43529 8.07647 5.72353 8.95882C4.52353 9.37647 3.41765 10.0588 2.49412 10.9824C0.882353 12.5941 0 14.7294 0 17H1.32941C1.32941 13.0471 4.54706 9.82941 8.5 9.82941C12.4529 9.82941 15.6706 13.0471 15.6706 17H17C17 14.7294 16.1176 12.5941 14.5118 10.9882ZM8.5 8.5C6.52353 8.5 4.91177 6.89412 4.91177 4.91177C4.91177 2.92941 6.51765 1.32353 8.5 1.32353C10.4824 1.32353 12.0882 2.92941 12.0882 4.91177C12.0882 6.89412 10.4824 8.5 8.5 8.5Z" fill="#7B6CEA"/>
</svg>
