<svg width="88" height="34" viewBox="0 0 88 34" fill="none" xmlns="http://www.w3.org/2000/svg">
<path d="M17.1673 16.1388C16.428 15.9913 15.7549 15.9235 15.1206 15.7162C13.0311 15.0424 12.1051 12.7341 13.0467 10.6728C13.8638 8.87875 15.9494 8.64353 17.1479 9.28541C17.8405 9.65619 18.1323 10.2263 18.035 11.0157C17.821 11.0356 17.6031 11.0476 17.3813 11.0755C16.607 11.1752 16.1051 11.6815 16.1051 12.3593C16.1051 13.0291 16.6809 13.667 17.3852 13.7706C18.5136 13.9421 19.4864 13.3321 19.8872 12.2118C20.6381 10.0868 19.3891 7.51126 17.214 6.72983C15.7393 6.19958 14.2802 6.39493 12.8638 6.97303C10.0389 8.13321 8.31907 10.334 7.79378 13.4038C7.08171 17.5661 8.35409 21.0227 11.6031 23.6222C11.9689 23.9172 12.3852 24.1485 12.7782 24.4076C12.7665 24.4594 12.7588 24.5113 12.7471 24.5631C12.3502 24.5073 11.9455 24.4833 11.5603 24.3837C7.54864 23.371 2.82101 19.2446 2.71206 12.8975C2.62646 8.02157 4.8716 4.55699 8.71595 2.08912C11.0895 0.574108 13.7237 -0.087712 16.5058 0.0079728C20.1089 0.135553 23.1167 1.60272 25.4397 4.51712C25.5953 4.71248 25.716 4.93574 25.9183 5.24273C22.856 10.4576 19.7938 15.6764 16.6654 20.9988C15.6109 19.1609 16.0233 17.606 17.1673 16.1348V16.1388Z" fill="#0174B7"/>
<path d="M1.35018 9.74789C1.35018 10.7925 1.30349 11.845 1.35797 12.8935C1.64979 18.7542 4.33851 22.9763 9.42411 25.496C12.0622 26.8037 14.8482 27.1904 17.7043 26.5406C20.2568 25.9585 22.5875 24.8581 24.179 22.5776C24.7782 21.7205 25.1712 20.7038 25.6576 19.7549C25.751 19.5715 25.8171 19.3762 25.9299 19.113C28.3307 19.1808 30.7237 19.2486 33.1128 19.3164C32.9066 23.3351 29.8054 29.4191 23.6809 32.3893C17.0506 35.6067 9.13228 33.9123 4.22567 28.1712C-0.610906 22.5059 -0.887171 14.7793 1.35018 9.74789Z" fill="#FF8B00"/>
<path d="M32.7082 14.8311C32.7043 16.5335 31.4202 17.8532 29.7899 17.8332C28.2724 17.8133 27.0117 16.4458 27.0156 14.8152C27.0156 13.1925 28.2879 11.833 29.8132 11.8211C31.4514 11.8051 32.7121 13.1208 32.7082 14.8351V14.8311Z" fill="#FF8B00"/>
<path d="M40.2685 27.8602C40.1712 28.2749 39.9455 28.841 39.2568 29.3154C38.5331 29.8098 37.6926 29.9055 37.0428 29.9055C36.2607 29.9055 35.4397 29.7779 34.7082 29.1081C34.214 28.6576 33.7549 27.92 33.7549 26.8356C33.7549 25.6236 34.323 24.8741 34.8249 24.4714C35.5953 23.8494 36.5214 23.7657 37.1012 23.7657C37.7393 23.7657 38.6654 23.8933 39.4241 24.6548C40.2412 25.4721 40.3035 26.4768 40.3035 26.9831V27.3419H36.1868C36.1751 27.629 36.2607 27.944 36.4047 28.1393C36.5486 28.3347 36.7899 28.4981 37.1634 28.4981C37.5136 28.4981 37.716 28.3586 37.8132 28.2669C37.9222 28.1632 38.0428 27.9918 38.0545 27.7247L40.2685 27.8642V27.8602ZM37.9455 26.1857C37.9689 25.9186 37.8988 25.6196 37.7276 25.4362C37.5214 25.193 37.2451 25.1691 37.1012 25.1691C36.9339 25.1691 36.6809 25.193 36.4514 25.4362C36.2841 25.6076 36.1751 25.8867 36.1868 26.1857H37.9455Z" fill="#0174B7"/>
<path d="M43.7821 26.1419L45.7432 23.8813H47.8132L45.9572 25.9226L48.0272 29.7859H45.5447L44.3774 27.4217L43.7743 28.1592V29.7859H41.3891V21.8719H43.7743V26.1419H43.7821Z" fill="#0174B7"/>
<path d="M51.0934 23.3272H48.7082V21.7603H51.0934V23.3272ZM51.0934 29.7859H48.7082V23.8813H51.0934V29.7859Z" fill="#0174B7"/>
<path d="M55.0778 23.8813H56.2802V25.4282H55.0778V27.5612C55.0778 27.7207 55.0778 27.9519 55.1984 28.0915C55.3191 28.231 55.5253 28.243 55.6304 28.243C55.7743 28.243 55.9805 28.231 56.2802 28.1273V29.742C55.5448 29.8816 55.0506 29.9015 54.7627 29.9015C54.2218 29.9015 53.5837 29.8337 53.1362 29.3473C52.6887 28.853 52.6887 28.2629 52.6887 27.6649V25.4282H51.7977V23.8813H52.7977L52.9767 22.0115L55.07 21.9437V23.8813H55.0778Z" fill="#0174B7"/>
<path d="M57.0778 25.6116C57.2724 24.8621 57.751 24.4475 58.0895 24.2402C58.7626 23.8136 59.6187 23.7657 60.3035 23.7657C61.3269 23.7657 62.4708 23.8813 62.9767 24.7943C63.2179 25.2329 63.2179 25.7153 63.2179 26.1897V28.4981C63.2179 28.833 63.2179 29.2038 63.3969 29.7899H61.1323C61.0973 29.6384 61.0467 29.3872 61.0467 28.9726C60.8055 29.3314 60.2646 29.9055 59.035 29.9055C57.4319 29.9055 56.8677 28.9606 56.8677 28.1872C56.8677 27.6689 57.0973 27.1266 57.5642 26.7678C58.2763 26.2256 59.5759 26.0542 60.4786 25.9824L60.9261 25.9465V25.8548C60.9261 25.7392 60.9261 25.496 60.7821 25.3485C60.6965 25.2568 60.5175 25.1771 60.1907 25.1771C59.5292 25.1771 59.3113 25.512 59.2646 25.811L57.0739 25.6156L57.0778 25.6116ZM60.5564 27.0748C59.9767 27.1665 59.7276 27.318 59.642 27.3738C59.3891 27.5453 59.3035 27.7885 59.3035 27.9719C59.3035 28.2709 59.5331 28.4902 59.965 28.4902C60.8677 28.4902 60.93 27.7765 60.93 27.3499V27.015L60.5564 27.0748Z" fill="#0174B7"/>
<path d="M64.6031 31.6557V23.8813H66.8171V24.7345H66.8405C66.9844 24.4913 67.1907 24.272 67.4202 24.1126C67.7588 23.8813 68.2257 23.7657 68.7082 23.7657C69.4553 23.7657 69.9377 24.0647 70.3113 24.5631C70.8405 25.2648 70.9144 26.1419 70.9144 26.7798C70.9144 27.5413 70.7938 28.3945 70.2763 29.0643C69.7471 29.746 69.109 29.9055 68.5798 29.9055C68.2413 29.9055 67.9066 29.8258 67.6537 29.7101C67.3269 29.5586 67.1479 29.3752 67.0156 29.156H66.9922V31.6597H64.607L64.6031 31.6557ZM66.9883 27.4217C66.9883 27.7446 67.0117 27.9998 67.1206 28.1832C67.179 28.2749 67.3385 28.4941 67.6615 28.4941C67.9261 28.4941 68.179 28.3666 68.3346 27.9998C68.4436 27.7446 68.4786 27.4017 68.4786 26.8236C68.4786 26.2017 68.4202 25.8907 68.3113 25.6714C68.1556 25.3485 67.9027 25.2448 67.6615 25.2448C67.4825 25.2448 67.3113 25.3126 67.2023 25.4163C66.9961 25.6116 66.9844 25.9107 66.9844 26.1299V27.4217H66.9883Z" fill="#0174B7"/>
<path d="M74.2996 27.6768V29.7859H72V27.6768H74.2996Z" fill="#FF8B00"/>
<path d="M78.0778 26.1419L80.0389 23.8813H82.109L80.2529 25.9226L82.323 29.7859H79.8405L78.6732 27.4217L78.07 28.1592V29.7859H75.6848V21.8719H78.07V26.1419H78.0778Z" fill="#FF8B00"/>
<path d="M87.9066 25.1372L85.2685 28.2868H88V29.7859H82.5681V28.5061L85.1673 25.3325H82.7938V23.8773H87.8988V25.1332L87.9066 25.1372Z" fill="#FF8B00"/>
</svg>
