<?xml version="1.0" encoding="UTF-8"?>
<svg id="_Слой_2" data-name="Слой 2" xmlns="http://www.w3.org/2000/svg" viewBox="0 0 113.89 135.44">
  <defs>
    <style>
      .cls-1 {
        fill: #fff;
      }
    </style>
  </defs>
  <g id="_Слой_1-2" data-name="Слой 1">
    <path class="cls-1" d="M113.84,116.94c-.06,.28-.19,.53-.37,.73-13.27,13.67-37.75,22.25-62.91,15.31-.02,0-.05-.01-.07-.02-5.14-1.37-10.27-3.39-15.3-6.15C5.73,110.64-7.41,75.45,4.2,43.96,14.96,14.8,41.76,.02,63.27,0c.06,0,.12,0,.17,.01,1.11,.15,2.14,1.7,1.41,3.06t0,0c-.1,.19-.23,.37-.41,.55-5.31,5.44-7.58,9.59-11.08,16.37-6,11.61-8.35,23.81-7.5,35.46,2.24,25.04,19.38,47.28,46.35,55.4,7.3,2.2,11.85,3.46,19.46,3.44,.52,0,.95,.14,1.28,.37,.77,.52,1.06,1.5,.89,2.27Z"/>
  </g>
</svg>