<svg width="17" height="21" viewBox="0 0 17 21" fill="none" xmlns="http://www.w3.org/2000/svg">
<path d="M14.5938 7.85255V5.69723C14.5938 2.6223 11.8601 0.122131 8.50001 0.122131C5.13988 0.122131 2.40621 2.6223 2.40621 5.69723V7.85255C1.11056 8.07526 0.121033 9.21758 0.121033 10.5898V18.1047C0.121033 19.635 1.35973 20.885 2.87606 20.885H14.1311C15.6474 20.885 16.8861 19.635 16.8861 18.1047V10.5898C16.8861 9.21758 15.8966 8.08245 14.6009 7.85255H14.5938ZM3.16793 5.69723C3.16793 3.04618 5.55989 0.890862 8.50001 0.890862C11.4401 0.890862 13.8321 3.04618 13.8321 5.69723V7.80944H3.16793V5.69723ZM16.1244 18.1047C16.1244 19.2111 15.2274 20.1163 14.1311 20.1163H2.86894C1.77262 20.1163 0.875639 19.2111 0.875639 18.1047V10.5898C0.875639 9.4834 1.77262 8.57817 2.86894 8.57817H14.124C15.2203 8.57817 16.1173 9.4834 16.1173 10.5898V18.1047H16.1244Z" fill="#7B6CEA" stroke="#7B6CEA" stroke-width="0.33" stroke-miterlimit="10"/>
</svg>
