<?xml version="1.0" encoding="UTF-8"?>
<svg id="_Слой_2" data-name="Слой 2" xmlns="http://www.w3.org/2000/svg" viewBox="0 0 140.73 147.77">
  <defs>
    <style>
      .cls-1 {
        fill: #3d405e;
      }
    </style>
  </defs>
  <g id="_Слой_1-2" data-name="Слой 1">
    <g>
      <path class="cls-1" d="M114.36,74.12c-.12,24.32-20,43.99-44.23,43.77-24.43-.22-43.87-19.9-43.71-44.27,.16-24.36,19.91-43.82,44.31-43.66,24.21,.16,43.75,19.93,43.63,44.16Z"/>
      <path class="cls-1" d="M59.3,20.99c3.07-6.63,6.07-13.11,9.15-19.76,.76-1.64,3.09-1.64,3.85,0,3.07,6.63,6.08,13.11,9.16,19.75,.72,1.54-.59,3.27-2.26,2.98-5.88-1.01-11.68-1.05-17.6,0-1.69,.3-3.03-1.42-2.31-2.98Z"/>
      <path class="cls-1" d="M16.61,68.1c-5.34-4.96-10.57-9.82-15.93-14.8-1.32-1.23-.6-3.44,1.19-3.66,7.25-.88,14.34-1.74,21.59-2.61,1.69-.2,2.93,1.56,2.14,3.07-2.77,5.29-4.58,10.81-5.45,16.75-.25,1.69-2.29,2.42-3.54,1.25Z"/>
      <path class="cls-1" d="M114.65,16.29c-1.41,7.2-2.79,14.2-4.19,21.32-.33,1.68-2.41,2.29-3.6,1.06-4.18-4.28-8.88-7.69-14.25-10.33-1.54-.76-1.6-2.93-.1-3.76,6.37-3.53,12.63-7,19.04-10.56,1.58-.87,3.46,.5,3.11,2.26Z"/>
      <path class="cls-1" d="M140.06,53.3c-5.37,4.99-10.59,9.84-15.91,14.79-1.25,1.17-3.29,.44-3.54-1.25-.88-5.93-2.65-11.43-5.42-16.71-.8-1.52,.42-3.31,2.13-3.1,7.19,.87,14.26,1.73,21.55,2.61,1.79,.22,2.51,2.43,1.19,3.66Z"/>
      <path class="cls-1" d="M.7,94.54c5.36-4.99,10.59-9.84,15.91-14.79,1.25-1.17,3.29-.44,3.54,1.25,.87,5.92,2.66,11.42,5.43,16.71,.8,1.52-.43,3.3-2.13,3.1-7.2-.87-14.28-1.73-21.56-2.61-1.79-.22-2.51-2.43-1.19-3.66Z"/>
      <path class="cls-1" d="M111.51,133.82c-6.38-3.55-12.61-7.02-18.97-10.55-1.49-.83-1.45-2.99,.08-3.75,5.34-2.63,10.04-6.01,14.23-10.29,1.2-1.22,3.27-.61,3.6,1.07,1.4,7.12,2.77,14.1,4.17,21.26,.35,1.77-1.54,3.14-3.11,2.26Z"/>
      <path class="cls-1" d="M29.22,14.02c6.48,3.6,12.78,7.1,19,10.56,1.45,.8,1.45,2.88,.01,3.7-2.62,1.48-5.22,2.94-7.63,4.68-2.38,1.72-4.55,3.73-6.78,5.78-1.22,1.12-3.19,.47-3.51-1.15-1.38-6.98-2.77-14.04-4.21-21.31-.35-1.77,1.53-3.14,3.11-2.26Z"/>
      <path class="cls-1" d="M138.86,98.19c-7.26,.88-14.34,1.74-21.52,2.61-1.69,.2-2.93-1.56-2.14-3.07,2.74-5.25,4.54-10.75,5.41-16.73,.25-1.7,2.29-2.42,3.54-1.26,5.32,4.95,10.55,9.81,15.9,14.79,1.32,1.23,.6,3.44-1.19,3.66Z"/>
      <path class="cls-1" d="M81.43,126.9c-3.07,6.6-6.06,13.05-9.13,19.64-.76,1.64-3.09,1.64-3.85,0-3.06-6.59-6.06-13.06-9.12-19.64-.72-1.56,.61-3.27,2.3-2.98,5.85,1.02,11.6,1.03,17.49,0,1.69-.3,3.02,1.42,2.3,2.98Z"/>
      <path class="cls-1" d="M48.2,123.26c-6.34,3.53-12.55,6.99-18.94,10.54-1.58,.88-3.46-.49-3.11-2.26,1.41-7.16,2.77-14.14,4.17-21.25,.33-1.68,2.4-2.29,3.6-1.07,4.17,4.26,8.84,7.65,14.17,10.28,1.54,.76,1.6,2.92,.1,3.76Z"/>
    </g>
  </g>
</svg>