<svg width="23" height="15" viewBox="0 0 23 15" fill="none" xmlns="http://www.w3.org/2000/svg">
<path d="M22.0647 0H0V14.7344H23V0H22.0647ZM21.144 0.920683L12.2584 9.81486C11.8529 10.2208 11.1462 10.2208 10.7407 9.81486L1.85339 0.920683H21.144ZM0.919793 1.28775L6.89327 7.26614L0.919793 13.2454V1.28688V1.28775ZM1.65407 13.8137L7.54472 7.91822L10.091 10.4661C10.4672 10.8426 10.9676 11.0508 11.5 11.0508C12.0324 11.0508 12.5328 10.8426 12.909 10.4661L15.4553 7.91735L21.3451 13.8128H1.65321L1.65407 13.8137ZM22.0802 13.2463L16.1067 7.26614L22.0802 1.28602V13.2463Z" fill="white"/>
</svg>
